<?xml version="1.0" encoding="UTF-8" standalone="no"?>
<svg
   height="92.859077"
   version="1.2"
   width="311.05017"
   id="svg6"
   sodipodi:docname="nerdy_sessions.svg"
   xml:space="preserve"
   inkscape:version="1.4 (e7c3feb1, 2024-10-09)"
   xmlns:inkscape="http://www.inkscape.org/namespaces/inkscape"
   xmlns:sodipodi="http://sodipodi.sourceforge.net/DTD/sodipodi-0.dtd"
   xmlns="http://www.w3.org/2000/svg"
   xmlns:svg="http://www.w3.org/2000/svg"><sodipodi:namedview
     id="namedview6"
     pagecolor="#ffffff"
     bordercolor="#000000"
     borderopacity="0.25"
     inkscape:showpageshadow="2"
     inkscape:pageopacity="0.0"
     inkscape:pagecheckerboard="0"
     inkscape:deskcolor="#d1d1d1"
     inkscape:zoom="1.4992571"
     inkscape:cx="5.0024777"
     inkscape:cy="-73.036174"
     inkscape:window-width="3136"
     inkscape:window-height="1186"
     inkscape:window-x="635"
     inkscape:window-y="342"
     inkscape:window-maximized="0"
     inkscape:current-layer="svg6" /><defs
     id="defs1" /><g
     id="g6"
     transform="translate(-341.63026,-355.9064)"><path
       d="m 463.57237,442.34033 c -2.08154,-0.76032 -3.81295,-1.90845 -4.71221,-3.12476 -1.06993,-1.44715 -2.01973,-3.50394 -2.01973,-4.37371 0,-0.80649 0.0209,-0.81274 2.71599,-0.81274 h 2.71598 l 0.82338,1.30431 c 1.49259,2.36441 4.94112,3.21413 7.67441,1.89096 2.20643,-1.06811 2.74959,-3.36225 1.19024,-5.02717 -0.67171,-0.71719 -1.87601,-1.26 -5.08809,-2.29334 -4.48381,-1.44246 -6.65735,-2.59343 -7.69861,-4.07672 -1.72611,-2.45886 -1.81314,-6.39275 -0.19945,-9.01516 1.0309,-1.6753 3.31668,-3.37294 5.3358,-3.96288 1.91195,-0.55862 5.54038,-0.45425 7.56297,0.21755 2.79262,0.92756 5.69985,4.3041 5.86906,6.81649 0.0582,0.86348 0.0513,0.86622 -2.38764,0.9588 l -2.44596,0.0928 -0.68611,-1.11014 c -1.20185,-1.94464 -4.35677,-2.96157 -6.5734,-2.11881 -1.3574,0.51608 -2.40857,1.87843 -2.40857,3.1216 0,1.74001 1.36586,2.76323 5.39281,4.03996 6.19266,1.96336 8.15018,3.28221 9.12708,6.14925 1.0658,3.12797 0.40495,6.16357 -1.89992,8.72713 -1.96158,2.18175 -3.99033,3.01265 -7.65997,3.13725 -2.25993,0.0767 -3.25636,-0.0397 -4.62806,-0.54072 z m 58.70806,0.20116 c -2.03037,-0.64212 -3.09279,-1.31211 -4.70524,-2.96727 -1.57446,-1.61615 -2.49476,-3.36279 -2.49476,-4.73483 0,-0.81017 3.8e-4,-0.81027 3.04,-0.81027 2.68863,0 3.04,0.0651 3.04,0.56327 0,0.77992 1.47699,2.29799 2.75558,2.83221 3.09267,1.2922 7.16442,-0.47604 7.16442,-3.1113 0,-2.08848 -1.57771,-3.20442 -6.71193,-4.74744 -5.80815,-1.74556 -7.92095,-3.77328 -8.25393,-7.92156 -0.47869,-5.96348 4.98866,-10.231 11.62655,-9.07506 3.96831,0.69105 6.23825,2.34871 7.78276,5.68347 1.08903,2.35132 0.8682,2.65641 -1.92271,2.65641 -2.29871,0 -2.29966,-3.7e-4 -3.43062,-1.32164 -1.31393,-1.53503 -2.69048,-2.19836 -4.56207,-2.19836 -1.58267,0 -3.40432,1.01811 -3.83137,2.14134 -0.96484,2.5377 0.24466,3.76287 5.36281,5.43228 5.21413,1.70073 7.3462,3.00318 8.48428,5.18292 1.6661,3.19106 1.03856,7.01203 -1.60128,9.74983 -0.65037,0.67451 -1.61449,1.45294 -2.14249,1.72985 -2.50241,1.31239 -6.99227,1.74087 -9.6,0.91615 z m 28.66604,-0.0607 c -0.95368,-0.2564 -2.20361,-0.75645 -2.77763,-1.11121 -2.0425,-1.26234 -4.13512,-4.26926 -4.34804,-6.2478 l -0.10037,-0.93266 2.7665,-0.092 2.76651,-0.092 0.68962,1.11584 c 1.43489,2.32169 4.77089,3.34163 7.50922,2.29586 1.67101,-0.63817 2.42815,-1.64881 2.42815,-3.24112 0,-1.86475 -1.15132,-2.71624 -5.76333,-4.26243 -5.34827,-1.79302 -6.93737,-2.69928 -8.13267,-4.63808 -1.73109,-2.80786 -1.46402,-6.89065 0.63037,-9.63653 1.0835,-1.42054 4.19716,-2.93618 6.58069,-3.20327 3.33711,-0.37396 7.4243,1.05424 9.45434,3.30365 1.05047,1.16399 1.94176,2.90255 2.07754,4.05246 l 0.11306,0.95762 -2.56,-0.1059 c -2.39363,-0.099 -2.60875,-0.16717 -3.31013,-1.04887 -2.27636,-2.86155 -7.01663,-2.89152 -8.48415,-0.0536 -0.64668,1.25054 -0.3109,2.53561 0.90482,3.46289 0.56677,0.43229 2.7759,1.35296 4.90917,2.04593 4.40261,1.43013 6.38408,2.4748 7.50036,3.95432 3.4642,4.59148 0.80781,11.7865 -4.98689,13.50734 -2.00811,0.59635 -5.58748,0.58252 -7.86714,-0.0304 z m 49.00749,-0.13649 c -5.13771,-1.34616 -9.12764,-5.46146 -10.47108,-10.80011 -2.46578,-9.79866 4.5654,-19.08878 14.39755,-19.02312 4.52345,0.0302 8.1258,1.58036 11.01246,4.73883 2.8147,3.07972 4.00102,6.18187 3.96539,10.36921 -0.0523,6.14367 -3.07811,11.23456 -8.16529,13.73787 -3.40909,1.67756 -6.86585,1.99215 -10.73903,0.97732 z m 7.84488,-5.80245 c 3.38787,-1.6127 5.02078,-4.51448 5.01544,-8.91274 -0.004,-3.41228 -0.81848,-5.43552 -3.01451,-7.48966 -3.35005,-3.13358 -8.27207,-3.10001 -11.89519,0.0811 -2.10813,1.85096 -3.41823,6.18567 -2.8238,9.34309 0.77474,4.11521 3.14709,6.84793 6.75637,7.7827 2.17385,0.56302 3.45087,0.39068 5.96169,-0.80453 z m -120.34508,5.59392 c -0.30647,-0.30647 -0.25453,-28.34632 0.0534,-28.83144 0.19993,-0.31498 2.41744,-0.38597 9.9951,-0.32 l 9.73816,0.0848 0.0953,2.1888 c 0.0582,1.3382 -0.0503,2.36415 -0.27918,2.64 -0.30086,0.36251 -1.71903,0.4512 -7.21528,0.4512 h -6.84083 v 3.51309 3.51309 l 6.16,0.0869 6.16,0.0869 0.096,2.02794 c 0.0577,1.21964 -0.0536,2.20812 -0.27919,2.48 -0.29828,0.3594 -1.58052,0.45206 -6.25599,0.45206 h -5.88082 v 3.2 3.2 h 6.86874 c 7.83485,0 7.53126,-0.1142 7.53126,2.83279 0,2.82098 0.82494,2.60721 -10.0609,2.60721 -5.31984,0 -9.76843,-0.096 -9.88577,-0.21334 z m 87.36,0 c -0.11733,-0.11732 -0.21333,-6.51504 -0.21333,-14.21713 0,-12.30407 0.061,-14.06484 0.50286,-14.50667 0.61006,-0.61006 3.97412,-0.69788 4.55314,-0.11885 0.28724,0.28723 0.384,3.99644 0.384,14.72 v 14.336 h -2.50667 c -1.37866,0 -2.60266,-0.096 -2.72,-0.21334 z m 52.98344,-14.42665 0.0832,-14.64 h 2.71104 2.71104 l 1.57441,2.4 c 2.72264,4.15034 11.50236,16.64 11.69725,16.64 0.10244,0 0.18626,-4.11561 0.18626,-9.1458 0,-10.47591 -0.12128,-10.0542 2.89156,-10.0542 2.85913,0 2.70844,-0.82339 2.70844,14.79902 0,7.49575 -0.0874,13.85641 -0.19424,14.1348 -0.15394,0.40117 -0.70747,0.50618 -2.66829,0.50618 h -2.47406 l -2.98365,-4.24 c -1.64101,-2.332 -4.54474,-6.42544 -6.45274,-9.09653 -1.908,-2.67108 -3.55603,-5.08308 -3.66229,-5.36 -0.60023,-1.56417 -0.76473,0.39256 -0.76473,9.09653 v 9.6 h -2.72323 -2.72323 z M 458.62329,399.60626 c -0.44528,-0.44528 -0.50286,-2.57299 -0.50286,-18.58104 0,-11.84979 0.11413,-18.29142 0.33126,-18.69714 0.29464,-0.55055 0.69617,-0.61896 3.63267,-0.61896 h 3.30142 l 2.51111,3.6 c 3.69756,5.30092 9.15408,12.99427 12.27903,17.31265 l 2.74451,3.79265 0.16,-12.27265 0.16,-12.27265 3.47376,-0.0912 c 2.28696,-0.06 3.62621,0.0354 3.92,0.27918 0.37216,0.30887 0.44624,3.41478 0.44624,18.70831 0,16.24421 -0.0574,18.39538 -0.50286,18.84082 -0.77174,0.77174 -6.88417,0.72557 -7.56517,-0.0571 -0.26798,-0.308 -3.00758,-4.304 -6.088,-8.88 -8.67359,-12.88472 -10.16124,-15.03186 -10.49442,-15.14667 -0.19584,-0.0675 -0.30955,4.35751 -0.30955,12.04576 0,10.78623 -0.0569,12.17427 -0.50617,12.34667 -0.2784,0.10683 -1.85211,0.19424 -3.49714,0.19424 -2.2924,0 -3.10842,-0.11745 -3.49383,-0.50286 z m 44.12405,0.10286 c -0.0842,-0.22 -0.11563,-8.824 -0.07,-19.12 l 0.083,-18.72 h 12.96 12.96 l 0.0918,3.33383 c 0.0675,2.45165 -0.0172,3.40296 -0.32,3.5951 -0.22648,0.1437 -4.34009,0.26347 -9.14135,0.26617 l -8.72956,0.005 0.0896,4.08 0.0896,4.08 7.84,0.16 7.84,0.16 0.0918,3.33383 c 0.0675,2.45165 -0.0172,3.40296 -0.32,3.5951 -0.22648,0.1437 -3.83179,0.26347 -8.01179,0.26617 l -7.6,0.005 v 4 4 h 8.61383 c 4.7376,0 8.8416,0.0874 9.12,0.19423 0.4187,0.16067 0.50617,0.79664 0.50617,3.68 v 3.48557 H 515.8704 c -10.0811,0 -13.00412,-0.0891 -13.12305,-0.4 z m 38.07425,-0.0541 c -0.60259,-0.44055 -0.62116,-1.01212 -0.62116,-19.12 v -18.6659 l 7.84,-0.0902 c 4.312,-0.0496 9.00601,0.0505 10.43112,0.22242 7.96888,0.96134 12.27747,6.71163 11.03399,14.72607 -0.19753,1.27307 -0.66027,2.91474 -1.02832,3.64817 -0.83697,1.66785 -3.43919,4.16943 -5.09889,4.90169 -0.69184,0.30524 -1.2579,0.68557 -1.2579,0.84517 0,0.1596 0.48571,1.10389 1.07936,2.09841 2.2448,3.76068 6.25098,10.79046 6.45581,11.32824 0.19664,0.51626 -0.12508,0.56 -4.11914,0.56 h -4.33245 l -0.60464,-0.88 c -0.33256,-0.484 -1.72916,-2.896 -3.10355,-5.36 -1.3744,-2.464 -2.83442,-5.00831 -3.2445,-5.65403 l -0.74559,-1.17402 -2.57265,0.009 -2.57265,0.009 v 6.52517 6.52518 h -3.45884 c -2.48178,0 -3.6343,-0.12828 -4.08,-0.45412 z m 17.17109,-20.38942 c 2.39083,-0.79905 3.70045,-2.96783 3.40028,-5.63096 -0.20538,-1.82207 -1.01444,-2.9336 -2.79907,-3.8455 -1.25979,-0.64373 -1.87649,-0.72 -5.82126,-0.72 h -4.4122 v 5.28 5.28 h 4.27225 c 2.34974,0 4.76174,-0.1636 5.36,-0.36354 z m 21.72775,2.04047 c 0,-16.09949 0.0683,-18.93524 0.46391,-19.26358 0.34597,-0.28713 2.80681,-0.35235 9.68,-0.25657 7.67336,0.10693 9.51071,0.22283 10.97609,0.69237 3.36533,1.07833 5.23526,2.1943 7.5318,4.49498 3.74047,3.74722 5.37394,8.07398 5.33085,14.12046 -0.0423,5.93605 -1.53689,9.92846 -5.02265,13.41664 -1.11526,1.11603 -2.85887,2.41202 -4.16,3.09204 -3.95585,2.06748 -5.01621,2.23348 -15.44,2.41723 l -9.36,0.16499 z m 19.43919,10.02658 c 3.84107,-1.74875 5.79248,-4.80112 6.07783,-9.50687 0.23771,-3.92 -0.60171,-6.6137 -2.81595,-9.03643 -2.33181,-2.55137 -3.98308,-3.11 -9.82107,-3.32249 l -4.56,-0.16597 v 11.59971 11.59971 l 4.56,-0.12874 c 4.18138,-0.11805 4.72599,-0.20431 6.55919,-1.03892 z m 32.08081,1.14342 V 384.843 l -4.43123,-7.48693 c -2.43718,-4.11783 -5.51218,-9.28695 -6.83335,-11.48695 l -2.40213,-4 4.03336,-0.0923 c 2.21834,-0.0508 4.32135,-0.0155 4.67335,0.0784 0.58186,0.15518 2.53094,3.49556 7.89381,13.52862 0.5864,1.09707 1.13819,1.99591 1.22619,1.99742 0.088,0.002 0.59983,-0.8241 1.13741,-1.83468 1.12483,-2.11454 6.07848,-11.28872 6.86683,-12.71741 l 0.52974,-0.96 4.37301,-0.089 c 3.02981,-0.0617 4.37301,0.0195 4.37301,0.26417 0,0.37863 -0.89213,1.9597 -5.76946,10.22486 -1.71367,2.904 -4.06859,6.91518 -5.23315,8.91375 l -2.11739,3.63367 v 7.26225 c 0,5.22175 -0.10789,7.37014 -0.384,7.64625 -0.25528,0.25527 -1.64978,0.384 -4.16,0.384 h -3.776 z"
       style="fill:#000000"
       id="path1-3" /><path
       d="m 365.01364,448.62862 c -7.13929,-0.77598 -10.26492,-2.11149 -12.87233,-5.5 -2.63473,-3.42404 -4.20242,-8.08873 -5.51,-16.39512 -0.5043,-3.20355 -0.83856,-3.79852 -2.45704,-4.37343 -2.27301,-0.80739 -2.54401,-1.28019 -2.54401,-4.43848 0,-2.99466 0.473,-3.97476 2.04308,-4.2335 0.30705,-0.0506 1.86318,-0.30965 3.45809,-0.57567 2.60554,-0.43459 5.99531,-0.91373 10.43934,-1.47558 4.55678,-0.57611 12.48038,-0.75782 16.6362,-0.3815 7.21829,0.65361 11.14878,1.76429 14.29313,4.03893 1.96077,1.41841 2.02211,1.44801 3.81806,1.84158 2.45205,0.53737 9.24807,0.25797 11.4569,-0.47102 0.38175,-0.12599 1.08478,-0.56721 1.5623,-0.98049 2.32401,-2.01143 6.10902,-3.37913 11.48636,-4.15058 4.45253,-0.63878 15.0432,-0.58199 19.91209,0.10676 0.69112,0.0978 1.69156,0.22102 2.22319,0.27389 3.41337,0.33944 11.3482,1.66801 12.21384,2.04501 1.25839,0.54805 1.45622,1.11737 1.42693,4.1064 -0.0331,3.37518 -0.20146,3.68753 -2.32848,4.31918 -1.47486,0.43799 -2.00412,1.19134 -2.30655,3.28319 -0.48718,3.36958 -1.56477,8.14075 -2.39833,10.61892 -1.31019,3.89521 -2.25678,5.63452 -4.19291,7.70423 -1.96789,2.10369 -4.17791,3.24911 -7.67841,3.97964 -3.52752,0.73616 -8.87347,1.01577 -11.53919,0.60351 -0.64668,-0.1 -1.87172,-0.2826 -2.72234,-0.40577 -1.85424,-0.2685 -4.78238,-1.17344 -6.3796,-1.97161 -4.7616,-2.37949 -8.27063,-7.07584 -10.1377,-13.56789 -0.60073,-2.08883 -1.07084,-4.36644 -1.26803,-6.14341 -0.15016,-1.35314 -0.7151,-2.24924 -1.74267,-2.76416 -0.62365,-0.31253 -1.1581,-0.38631 -2.8006,-0.38665 -1.86052,-3.7e-4 -2.10439,0.0434 -2.923,0.52463 -1.14971,0.67588 -1.38083,1.18906 -2.10605,4.67639 -1.3928,6.69748 -3.54149,11.29137 -6.73867,14.40724 -3.25569,3.17289 -6.6302,4.66363 -12.45536,5.50232 -1.74605,0.2514 -6.27092,0.35666 -7.86824,0.18304 z m 8.66287,-4.32012 c 5.53632,-1.11127 9.24756,-3.92264 11.73727,-8.89134 1.61368,-3.22039 2.49128,-7.09004 2.50128,-11.02891 l 0.007,-2.81276 -0.7237,-1.46474 c -0.45611,-0.92314 -0.97527,-1.65661 -1.40408,-1.98368 -1.46252,-1.11553 -4.58826,-2.16841 -8.11825,-2.73459 -1.96654,-0.3154 -6.61786,-0.54315 -10.536,-0.51585 -5.16144,0.036 -8.36072,0.36104 -10.92265,1.10992 -4.08874,1.19519 -5.29314,2.7204 -5.46602,6.92204 -0.0934,2.27071 0.20881,5.87766 0.65936,7.86887 0.15639,0.69112 0.36449,1.62873 0.46246,2.08359 0.098,0.45485 0.44625,1.62928 0.77394,2.60983 1.22547,3.667 2.9568,6.07473 5.31015,7.38482 1.49325,0.83127 4.05115,1.6271 5.6797,1.76712 0.70393,0.0605 1.32336,0.15639 1.37653,0.21305 0.23497,0.25044 6.76983,-0.1474 8.66287,-0.52737 z m 56.57868,0.36747 c 2.14567,-0.26314 4.82579,-1.12145 6.30202,-2.0182 4.09804,-2.48943 6.84738,-9.74055 6.99676,-18.45324 0.0388,-2.26444 -0.0142,-2.79734 -0.40044,-4.02671 -1.02547,-3.26371 -3.45426,-4.38482 -11.15409,-5.14863 -3.96557,-0.39339 -11.415,-0.2132 -15.46569,0.37407 -3.54114,0.5134 -6.49353,1.46806 -8.09343,2.61703 -2.81208,2.01947 -3.25392,7.99759 -1.07933,14.60309 1.08209,3.2869 3.04055,6.42602 5.12671,8.21736 1.04572,0.89794 3.53728,2.24289 5.11606,2.76166 3.29754,1.08355 8.77796,1.54861 12.65143,1.07357 z m -33.98282,-32.78605 c -0.19212,-0.0498 -0.43136,-0.30634 -0.53164,-0.57012 -0.10738,-0.28244 -0.18275,-5.62033 -0.18333,-12.98457 -0.002,-18.6582 -0.36815,-28.37869 -1.157,-30.6715 -1.43897,-4.18247 -3.91445,-6.56447 -7.63813,-7.34974 -2.15373,-0.4542 -3.74459,-0.37613 -5.90199,0.28962 -2.36422,0.72958 -3.39691,1.30502 -4.95105,2.75884 -4.85725,4.54371 -3.16001,12.89842 2.62029,12.89842 h 1.18155 l 0.37116,-0.82161 c 0.20413,-0.45189 0.59856,-1.58691 0.87651,-2.52225 0.58157,-1.95712 0.97399,-2.45577 1.93264,-2.45577 1.42774,0 1.75639,1.99505 0.80992,4.91661 -0.55684,1.71882 -0.59989,3.74141 -0.11344,5.32941 0.25944,0.84696 0.41962,1.03102 3.12608,3.59174 1.17514,1.11186 0.88181,2.40524 -0.65621,2.89338 -0.57448,0.18233 -2.34605,-0.76832 -3.46763,-1.86077 -0.99209,-0.96633 -2.03499,-2.88579 -2.48627,-4.57602 -0.18857,-0.70628 -0.29294,-0.823 -0.74354,-0.83146 -2.54559,-0.0478 -4.65629,-0.35828 -5.55289,-0.81684 -2.1644,-1.10696 -4.27628,-4.32857 -4.95862,-7.56423 -0.11427,-0.54183 -0.23631,-1.01675 -0.27121,-1.05536 -0.163,-0.18034 -3.01601,1.43065 -4.08673,2.30763 -2.23904,1.83387 -3.32662,4.01289 -3.33732,6.68647 -0.0146,3.64682 2.08677,6.01556 5.64781,6.36646 1.07081,0.10551 1.42751,0.23089 1.89245,0.66521 1.01208,0.94542 0.66329,2.43957 -0.70271,3.01033 -0.88301,0.36894 -1.87338,0.33834 -3.6355,-0.11233 -2.95439,-0.75561 -4.52162,-1.978 -6.1406,-4.78945 -0.32144,-0.55822 -0.62589,-1.01494 -0.67656,-1.01494 -0.32227,0 -1.99334,1.17416 -2.75485,1.93567 -1.65394,1.65395 -3.09319,5.30894 -3.15824,8.02037 -0.0589,2.45462 0.78592,5.15501 2.49933,7.98887 1.44569,2.39109 1.47256,2.94309 0.22771,4.67798 -0.49421,0.68875 -1.20199,1.60026 -1.57286,2.02556 -0.6231,0.71456 -0.74414,0.77066 -1.59402,0.73865 -0.50585,-0.019 -1.04543,-0.16035 -1.19908,-0.31399 -0.50332,-0.50332 -0.3691,-1.95263 0.30117,-3.25228 l 0.60764,-1.17821 -0.96157,-1.96016 c -1.39105,-2.83566 -1.95044,-4.93221 -2.07377,-7.77252 -0.20242,-4.66186 1.21972,-8.60362 4.22004,-11.69673 1.4489,-1.4937 2.50648,-2.21451 3.9577,-2.69746 l 1.24318,-0.4137 v -0.91992 c 0,-2.09497 1.19913,-5.31186 2.70802,-7.26471 1.67621,-2.16941 3.24699,-3.21591 6.35307,-4.23264 1.13018,-0.36996 2.2177,-0.69988 2.4167,-0.73317 0.23383,-0.0391 0.6914,-0.69057 1.29337,-1.84137 1.82804,-3.49472 3.53927,-5.28289 6.40633,-6.69437 4.07454,-2.00593 8.69033,-2.61319 11.94974,-1.57215 3.45525,1.10361 5.69787,2.72495 7.67823,5.55115 0.58822,0.83944 1.13157,1.45505 1.20744,1.368 0.0759,-0.087 0.6004,-0.83697 1.16561,-1.66652 1.76755,-2.59417 3.66458,-3.97913 7.02439,-5.12827 1.64329,-0.56205 2.23226,-0.67123 3.60718,-0.66872 3.03492,0.005 6.05897,0.77254 9.16904,2.32553 2.74485,1.37063 4.6822,3.45829 6.22598,6.70905 0.56355,1.1867 0.76361,1.43474 1.23286,1.52859 1.18595,0.23718 4.97422,1.76465 5.9335,2.39243 1.49258,0.9768 3.05983,2.78099 3.9449,4.54131 0.84074,1.67216 1.5253,4.01169 1.5253,5.21283 v 0.74688 l 1.78822,0.85429 c 3.62212,1.73041 6.07626,4.8279 7.28711,9.19741 0.5493,1.98221 0.67383,3.88129 0.40573,6.18739 -0.28524,2.45358 -0.93406,4.58023 -2.07399,6.79803 l -0.86566,1.68416 0.60949,1.23802 c 1.06492,2.16318 0.78161,3.80455 -0.65627,3.8021 -0.89904,-0.002 -1.49496,-0.49057 -3.10051,-2.54449 -1.85136,-2.36835 -1.86303,-2.53526 -0.3354,-4.79616 1.41267,-2.09073 2.25855,-4.10667 2.6393,-6.29005 0.26575,-1.52394 0.26604,-1.88255 0.003,-3.45867 -0.35969,-2.15317 -1.77186,-5.17622 -3.02114,-6.46731 -1.09982,-1.13666 -2.90951,-2.33314 -3.02155,-1.99769 -0.17596,0.52683 -2.06647,3.17223 -2.7327,3.82387 -1.36475,1.33487 -4.98704,2.56515 -6.91322,2.34804 -1.84392,-0.20784 -2.65975,-2.0232 -1.45199,-3.23096 0.45293,-0.45294 0.77441,-0.56933 1.88488,-0.68241 1.6569,-0.16872 2.85458,-0.6712 3.82035,-1.6028 2.87433,-2.77261 2.4491,-7.91445 -0.90898,-10.99153 -1.09366,-1.00215 -3.25258,-2.27496 -4.52071,-2.66525 -0.38169,-0.11747 -0.43498,-0.0654 -0.43498,0.42526 0,0.75925 -0.80342,3.06699 -1.58079,4.54068 -0.79779,1.51238 -2.38229,3.13253 -3.58309,3.6637 -0.67063,0.29665 -1.56064,0.4474 -3.31232,0.561 -1.31741,0.0854 -2.41049,0.18136 -2.42906,0.21314 -0.0186,0.0318 -0.13817,0.46985 -0.26577,0.97345 -0.34673,1.36833 -1.75998,3.75754 -2.64857,4.47764 -2.14076,1.73484 -3.06738,2.02461 -4.03654,1.26227 -0.38653,-0.30405 -0.50938,-0.57341 -0.50938,-1.11692 0,-0.91857 0.34947,-1.40189 1.62657,-2.24957 1.13446,-0.75302 1.89837,-1.75727 2.22123,-2.92007 0.33908,-1.22128 0.25147,-3.3526 -0.20663,-5.02611 -0.98923,-3.61396 -0.41837,-5.63474 1.39683,-4.9446 0.61817,0.23502 0.80832,0.61246 1.72067,3.41544 l 0.75509,2.31985 1.06881,0.0578 c 1.49983,0.0811 2.43548,-0.22437 3.46588,-1.13137 2.57041,-2.26257 2.97939,-6.75191 0.90096,-9.88977 -1.9838,-2.99498 -6.17608,-5.18345 -9.91458,-5.17563 -1.75035,0.003 -3.80625,0.46256 -5.16136,1.15206 -3.08545,1.56994 -5.06927,4.9041 -5.63899,9.47729 -0.12347,0.99109 -0.25351,9.37983 -0.32766,21.13753 l -0.12297,19.4943 -0.45638,0.36946 c -0.43568,0.35269 -1.37266,0.45181 -2.21276,0.23408 z m -28.71652,-6.23596 c -2.12567,-0.6075 -4.33028,-1.82502 -5.37388,-2.96779 -1.72325,-1.88694 -2.56021,-4.27899 -1.9262,-5.50503 0.55912,-1.08123 2.4587,-1.22288 2.96557,-0.22113 0.13067,0.25825 0.45345,0.9491 0.71728,1.53523 0.57599,1.27958 1.70326,2.46655 2.91935,3.07389 0.53673,0.26806 1.67295,0.55493 2.84892,0.71928 2.34932,0.32837 2.65295,0.53707 2.65295,1.8235 0,0.78939 -0.0841,0.99026 -0.59479,1.41994 -0.50505,0.42497 -0.77488,0.49841 -1.78822,0.48671 -0.65638,-0.008 -1.74583,-0.17164 -2.42098,-0.3646 z m 18.19923,0.003 c -0.2577,-0.24007 -0.45428,-0.74649 -0.54409,-1.40157 -0.29962,-2.18537 -1.59364,-3.98312 -3.46192,-4.80956 -0.44585,-0.19721 -1.5387,-0.41321 -2.44019,-0.48229 -1.31062,-0.10044 -1.90872,-0.25881 -3.03189,-0.80281 -1.51158,-0.73215 -3.04638,-1.95552 -3.24723,-2.58836 -0.18865,-0.59437 0.25984,-1.46325 0.89002,-1.72428 0.76977,-0.31886 1.61657,-0.11845 2.98312,0.70598 1.04864,0.63265 1.34949,0.71497 3.13586,0.8581 2.7126,0.21731 3.5996,0.67536 6.35111,3.27967 1.76248,1.66819 2.79662,5.57517 1.80828,6.83164 -0.50989,0.64823 -1.81408,0.71948 -2.44307,0.13348 z m 20.36344,-0.0659 c -0.79042,-0.57796 -0.55225,-3.07942 0.49218,-5.16951 0.4474,-0.89534 0.98276,-1.52181 2.23898,-2.62009 2.268,-1.98282 2.5734,-2.11042 5.69613,-2.38006 1.77387,-0.15316 2.22209,-0.26485 3.11667,-0.7767 1.23402,-0.70602 2.17665,-0.76999 2.90493,-0.19712 0.38893,0.30593 0.50938,0.57255 0.50938,1.12757 0,0.61597 -0.11837,0.82202 -0.77567,1.35024 -1.4529,1.16759 -2.92389,1.75475 -4.87797,1.9471 -2.2051,0.21708 -3.34788,0.60244 -4.36282,1.47118 -1.09198,0.9347 -1.55245,1.76565 -1.88657,3.40452 -0.19175,0.94053 -0.42314,1.52808 -0.69037,1.753 -0.47657,0.40111 -1.86696,0.45396 -2.36487,0.0899 z m 16.945,-0.13294 c -0.67622,-0.41229 -0.89015,-0.94089 -0.79272,-1.95871 0.0742,-0.77517 0.52469,-1.04469 2.06584,-1.23594 3.19984,-0.39708 5.01404,-1.68231 6.47255,-4.58536 0.60616,-1.20649 0.61633,-1.21508 1.50651,-1.27271 0.72478,-0.047 1.00213,0.0331 1.44983,0.41816 0.49442,0.42529 0.55088,0.59175 0.52827,1.55738 -0.0321,1.3686 -0.82778,2.79243 -2.52272,4.51408 -1.33438,1.35542 -2.47583,1.96394 -4.79792,2.55782 -1.92988,0.49357 -3.10619,0.49517 -3.90964,0.005 z"
       style="fill:#000000;stroke-width:0.604129"
       id="path1-5-2" /></g></svg>
