<?xml version="1.0" encoding="UTF-8" standalone="no"?>
<svg
   height="92.926437"
   version="1.2"
   width="311.05179"
   id="svg6"
   sodipodi:docname="nerdy_sessions.svg"
   xml:space="preserve"
   inkscape:version="1.4 (e7c3feb1, 2024-10-09)"
   xmlns:inkscape="http://www.inkscape.org/namespaces/inkscape"
   xmlns:sodipodi="http://sodipodi.sourceforge.net/DTD/sodipodi-0.dtd"
   xmlns="http://www.w3.org/2000/svg"
   xmlns:svg="http://www.w3.org/2000/svg"><sodipodi:namedview
     id="namedview6"
     pagecolor="#ffffff"
     bordercolor="#000000"
     borderopacity="0.25"
     inkscape:showpageshadow="2"
     inkscape:pageopacity="0.0"
     inkscape:pagecheckerboard="0"
     inkscape:deskcolor="#d1d1d1"
     inkscape:zoom="4"
     inkscape:cx="283"
     inkscape:cy="35.125"
     inkscape:window-width="3696"
     inkscape:window-height="1934"
     inkscape:window-x="70"
     inkscape:window-y="55"
     inkscape:window-maximized="0"
     inkscape:current-layer="svg6" /><defs
     id="defs1" /><path
     d="m 54.46819,56.08552 c -0.19212,-0.0498 -0.43136,-0.30634 -0.53164,-0.57012 -0.10738,-0.28244 -0.18275,-5.62033 -0.18333,-12.98457 -0.002,-18.6582 -0.36815,-28.37869 -1.157,-30.6715 -1.43897,-4.1824696 -3.91445,-6.5644696 -7.63813,-7.3497396 -2.15373,-0.4542 -3.74459,-0.37613 -5.90199,0.28962 -2.36422,0.72958 -3.39691,1.30502 -4.95105,2.75884 C 29.2478,12.10176 30.94504,20.45647 36.72534,20.45647 h 1.18155 l 0.37116,-0.82161 c 0.20413,-0.45189 0.59856,-1.58691 0.87651,-2.52225 0.58157,-1.95712 0.97399,-2.45577 1.93264,-2.45577 1.42774,0 1.75639,1.99505 0.80992,4.91661 -0.55684,1.71882 -0.59989,3.74141 -0.11344,5.32941 0.25944,0.84696 0.41962,1.03102 3.12608,3.59174 1.17514,1.11186 0.88181,2.40524 -0.65621,2.89338 -0.57448,0.18233 -2.34605,-0.76832 -3.46763,-1.86077 -0.99209,-0.96633 -2.03499,-2.88579 -2.48627,-4.57602 -0.18857,-0.70628 -0.29294,-0.823 -0.74354,-0.83146 -2.54559,-0.0478 -4.65629,-0.35828 -5.55289,-0.81684 -2.1644,-1.10696 -4.27628,-4.32857 -4.95862,-7.56423 -0.11427,-0.54183 -0.23631,-1.01675 -0.27121,-1.05536 -0.163,-0.18034 -3.01601,1.43065 -4.08673,2.30763 -2.23904,1.83387 -3.32662,4.01289 -3.33732,6.68647 -0.0146,3.64682 2.08677,6.01556 5.64781,6.36646 1.07081,0.10551 1.42751,0.23089 1.89245,0.66521 1.01208,0.94542 0.66329,2.43957 -0.70271,3.01033 -0.88301,0.36894 -1.87338,0.33834 -3.6355,-0.11233 -2.95439,-0.75561 -4.52162,-1.978 -6.1406,-4.78945 -0.32144,-0.55822 -0.62589,-1.01494 -0.67656,-1.01494 -0.32227,0 -1.99334,1.17416 -2.75485,1.93567 -1.65394,1.65395 -3.0931904,5.30894 -3.15824,8.02037 -0.0589,2.45462 0.78592,5.15501 2.49933,7.98887 1.44569,2.39109 1.47256,2.94309 0.22771,4.67798 -0.49421,0.68875 -1.20199,1.60026 -1.57286,2.02556 -0.6231,0.71456 -0.74414,0.77066 -1.59402,0.73865 C 8.87545,53.17078 8.33587,53.02943 8.18222,52.87579 7.6789,52.37247 7.81312,50.92316 8.48339,49.62351 L 9.09103,48.4453 8.12946,46.48514 C 6.73841,43.64948 6.17902,41.55293 6.05569,38.71262 5.85327,34.05076 7.27541,30.109 10.27573,27.01589 c 1.4489,-1.4937 2.50648,-2.21451 3.9577,-2.69746 l 1.24318,-0.4137 v -0.91992 c 0,-2.09497 1.19913,-5.31186 2.70802,-7.26471 1.67621,-2.16941 3.24699,-3.21591 6.35307,-4.23264 1.13018,-0.36996 2.2177,-0.69988 2.4167,-0.73317 0.23383,-0.0391 0.6914,-0.69057 1.29337,-1.8413696 1.82804,-3.49472 3.53927,-5.28289 6.40633,-6.69437 4.07454,-2.00592996 8.69033,-2.61318996 11.94974,-1.57214996 3.45525,1.10360996 5.69787,2.72494996 7.67823,5.55114996 0.58822,0.83944 1.13157,1.45505 1.20744,1.368 0.0759,-0.087 0.6004,-0.83697 1.16561,-1.66652 1.76755,-2.59417 3.66458,-3.97913 7.02439,-5.12826996 1.64329,-0.56205 2.23226,-0.67123 3.60718,-0.66872 3.03492,0.005 6.05897,0.77254 9.16904,2.32552996 2.74485,1.37063 4.6822,3.45829 6.22598,6.70905 0.56355,1.1866996 0.76361,1.4347396 1.23286,1.5285896 1.18595,0.23718 4.97422,1.76465 5.9335,2.39243 1.49258,0.9768 3.05983,2.78099 3.9449,4.54131 0.84074,1.67216 1.5253,4.01169 1.5253,5.21283 v 0.74688 l 1.78822,0.85429 c 3.62213,1.73041 6.07627,4.8279 7.28712,9.19741 0.5493,1.98221 0.67383,3.88129 0.40573,6.18739 -0.28524,2.45358 -0.93406,4.58023 -2.07399,6.79803 l -0.86566,1.68416 0.60949,1.23802 c 1.06492,2.16318 0.78161,3.80455 -0.65627,3.8021 -0.89904,-0.002 -1.49496,-0.49057 -3.10052,-2.54449 -1.85136,-2.36835 -1.86303,-2.53526 -0.3354,-4.79616 1.41268,-2.09073 2.25856,-4.10667 2.63931,-6.29005 0.26575,-1.52394 0.26604,-1.88255 0.003,-3.45867 -0.35969,-2.15317 -1.77187,-5.17622 -3.02115,-6.46731 -1.09982,-1.13666 -2.90951,-2.33314 -3.02155,-1.99769 -0.17596,0.52683 -2.06647,3.17223 -2.7327,3.82387 -1.36475,1.33487 -4.98704,2.56515 -6.91322,2.34804 -1.84392,-0.20784 -2.65975,-2.0232 -1.45199,-3.23096 0.45293,-0.45294 0.77441,-0.56933 1.88488,-0.68241 1.6569,-0.16872 2.85458,-0.6712 3.82035,-1.6028 2.87433,-2.77261 2.4491,-7.91445 -0.90898,-10.99153 -1.09366,-1.00215 -3.25258,-2.27496 -4.52071,-2.66525 -0.38169,-0.11747 -0.43498,-0.0654 -0.43498,0.42526 0,0.75925 -0.80342,3.06699 -1.58079,4.54068 -0.79779,1.51238 -2.38229,3.13253 -3.58309,3.6637 -0.67063,0.29665 -1.56064,0.4474 -3.31232,0.561 -1.31741,0.0854 -2.41049,0.18136 -2.42906,0.21314 -0.0186,0.0318 -0.13817,0.46985 -0.26577,0.97345 -0.34673,1.36833 -1.75998,3.75754 -2.64857,4.47764 -2.14076,1.73484 -3.06738,2.02461 -4.03654,1.26227 -0.38653,-0.30405 -0.50938,-0.57341 -0.50938,-1.11692 0,-0.91857 0.34947,-1.40189 1.62657,-2.24957 1.13446,-0.75302 1.89837,-1.75727 2.22123,-2.92007 0.33908,-1.22128 0.25147,-3.3526 -0.20663,-5.02611 -0.98923,-3.61396 -0.41837,-5.63474 1.39683,-4.9446 0.61817,0.23502 0.80832,0.61246 1.72067,3.41544 l 0.75509,2.31985 1.06881,0.0578 c 1.49983,0.0811 2.43548,-0.22437 3.46588,-1.13137 2.57041,-2.26257 2.97939,-6.75191 0.90096,-9.8897696 -1.9838,-2.99498 -6.17608,-5.18345 -9.91458,-5.17563 -1.75035,0.003 -3.80625,0.46256 -5.16136,1.15206 -3.08545,1.56994 -5.06927,4.9040996 -5.63899,9.4772896 -0.12347,0.99109 -0.25351,9.37983 -0.32766,21.13753 l -0.12297,19.4943 -0.45638,0.36946 c -0.43568,0.35269 -1.37266,0.45181 -2.21276,0.23408 z M 25.75167,49.84956 c -2.12567,-0.6075 -4.33028,-1.82502 -5.37388,-2.96779 -1.72325,-1.88694 -2.56021,-4.27899 -1.9262,-5.50503 0.55912,-1.08123 2.4587,-1.22288 2.96557,-0.22113 0.13067,0.25825 0.45345,0.9491 0.71728,1.53523 0.57599,1.27958 1.70326,2.46655 2.91935,3.07389 0.53673,0.26806 1.67295,0.55493 2.84892,0.71928 2.34932,0.32837 2.65295,0.53707 2.65295,1.8235 0,0.78939 -0.0841,0.99026 -0.59479,1.41994 -0.50505,0.42497 -0.77488,0.49841 -1.78822,0.48671 -0.65638,-0.008 -1.74583,-0.17164 -2.42098,-0.3646 z m 18.19923,0.003 c -0.2577,-0.24007 -0.45428,-0.74649 -0.54409,-1.40157 -0.29962,-2.18537 -1.59364,-3.98312 -3.46192,-4.80956 -0.44585,-0.19721 -1.5387,-0.41321 -2.44019,-0.48229 -1.31062,-0.10044 -1.90872,-0.25881 -3.03189,-0.80281 -1.51158,-0.73215 -3.04638,-1.95552 -3.24723,-2.58836 -0.18865,-0.59437 0.25984,-1.46325 0.89002,-1.72428 0.76977,-0.31886 1.61657,-0.11845 2.98312,0.70598 1.04864,0.63265 1.34949,0.71497 3.13586,0.8581 2.7126,0.21731 3.5996,0.67536 6.35111,3.27967 1.76248,1.66819 2.79662,5.57517 1.80828,6.83164 -0.50989,0.64823 -1.81408,0.71948 -2.44307,0.13348 z m 20.36344,-0.0659 c -0.79042,-0.57796 -0.55225,-3.07942 0.49218,-5.16951 0.4474,-0.89534 0.98276,-1.52181 2.23898,-2.62009 2.268,-1.98282 2.5734,-2.11042 5.69613,-2.38006 1.77387,-0.15316 2.22209,-0.26485 3.11667,-0.7767 1.23402,-0.70602 2.17665,-0.76999 2.90493,-0.19712 0.38893,0.30593 0.50938,0.57255 0.50938,1.12757 0,0.61597 -0.11837,0.82202 -0.77567,1.35024 -1.4529,1.16759 -2.92389,1.75475 -4.87797,1.9471 -2.2051,0.21708 -3.34788,0.60244 -4.36282,1.47118 -1.09198,0.9347 -1.55245,1.76565 -1.88657,3.40452 -0.19175,0.94053 -0.42314,1.52808 -0.69037,1.753 -0.47657,0.40111 -1.86696,0.45396 -2.36487,0.0899 z m 16.945,-0.13294 c -0.67622,-0.41229 -0.89015,-0.94089 -0.79272,-1.95871 0.0742,-0.77517 0.52469,-1.04469 2.06584,-1.23594 3.19984,-0.39708 5.01404,-1.68231 6.47255,-4.58536 0.60616,-1.20649 0.61633,-1.21508 1.50651,-1.27271 0.72478,-0.047 1.00213,0.0331 1.44983,0.41816 0.49442,0.42529 0.55088,0.59175 0.52827,1.55738 -0.0321,1.3686 -0.82778,2.79243 -2.52272,4.51408 -1.33438,1.35542 -2.47583,1.96394 -4.79792,2.55782 -1.92988,0.49357 -3.10619,0.49517 -3.90964,0.005 z"
     style="fill:#d98762;fill-opacity:1;stroke:none;stroke-width:0.204;stroke-dasharray:none;stroke-opacity:1"
     id="path1-8" /><path
     d="M 23.38338,92.789581 C 16.24409,92.013598 13.11846,90.678088 10.51105,87.289578 7.87632,83.865538 6.30863,79.200848 5.00105,70.894458 4.49675,67.690908 4.16249,67.095938 2.54401,66.521028 0.271,65.713638 0,65.240838 0,62.082548 c 0,-2.99466 0.473,-3.97476 2.04308,-4.2335 0.30705,-0.0506 1.86318,-0.30965 3.45809,-0.57567 2.60554,-0.43459 5.99531,-0.91373 10.43934,-1.47558 4.55678,-0.57611 12.48038,-0.75782 16.6362,-0.3815 7.21829,0.65361 11.14878,1.76429 14.29313,4.03893 1.96077,1.41841 2.02211,1.44801 3.81806,1.84158 2.45205,0.53737 9.24807,0.25797 11.4569,-0.47102 0.38175,-0.12599 1.08478,-0.56721 1.5623,-0.98049 2.32401,-2.01143 6.10902,-3.37913 11.48636,-4.15058 4.45253,-0.63878 15.0432,-0.58199 19.91209,0.10676 0.69112,0.0978 1.69156,0.22102 2.22319,0.27389 3.41337,0.33944 11.3482,1.66801 12.21384,2.04501 1.25839,0.54805 1.45622,1.11737 1.42693,4.1064 -0.0331,3.37518 -0.20146,3.68753 -2.32848,4.31918 -1.47486,0.43799 -2.00412,1.19134 -2.30655,3.28319 -0.48718,3.36958 -1.56477,8.14075 -2.39833,10.61892 -1.31019,3.89521 -2.25678,5.63452 -4.19291,7.70423 -1.96789,2.10369 -4.17791,3.24911 -7.67841,3.97964 -3.52752,0.736163 -8.87347,1.015773 -11.53919,0.603513 -0.64668,-0.1 -1.87172,-0.282603 -2.72234,-0.405773 -1.85424,-0.2685 -4.78238,-1.17344 -6.3796,-1.97161 -4.7616,-2.37949 -8.27063,-7.07584 -10.1377,-13.56789 -0.60073,-2.08883 -1.07084,-4.36644 -1.26803,-6.14341 -0.15016,-1.35314 -0.7151,-2.24924 -1.74267,-2.76416 -0.62365,-0.31253 -1.1581,-0.38631 -2.8006,-0.38665 -1.86052,-3.7e-4 -2.10439,0.0434 -2.923,0.52463 -1.14971,0.67588 -1.38083,1.18906 -2.10605,4.67639 -1.3928,6.69748 -3.54149,11.29137 -6.73867,14.40724 -3.25569,3.17289 -6.6302,4.66363 -12.45536,5.502323 -1.74605,0.2514 -6.27092,0.35666 -7.86824,0.18304 z m 8.66287,-4.320123 c 5.53632,-1.11127 9.24756,-3.92264 11.73727,-8.89134 1.61368,-3.22039 2.49128,-7.09004 2.50128,-11.02891 l 0.007,-2.81276 -0.7237,-1.46474 c -0.45611,-0.92314 -0.97527,-1.65661 -1.40408,-1.98368 -1.46252,-1.11553 -4.58826,-2.16841 -8.11825,-2.73459 -1.96654,-0.3154 -6.61786,-0.54315 -10.536,-0.51585 -5.16144,0.036 -8.36072,0.36104 -10.92265,1.10992 -4.08874,1.19519 -5.29314,2.7204 -5.46602,6.92204 -0.0934,2.27071 0.20881,5.87766 0.65936,7.86887 0.1563896,0.69112 0.36449,1.62873 0.46246,2.08359 0.098,0.45485 0.44625,1.62928 0.77394,2.60983 1.22547,3.667 2.9568,6.07473 5.31015,7.38482 1.49325,0.83127 4.05115,1.6271 5.6797,1.76712 0.70393,0.0605 1.32336,0.15639 1.37653,0.21305 0.23497,0.25044 6.76983,-0.1474 8.66287,-0.52737 z m 56.57868,0.36747 c 2.14567,-0.26314 4.82579,-1.12145 6.30202,-2.0182 4.09804,-2.48943 6.84738,-9.74055 6.99676,-18.45324 0.0388,-2.26444 -0.0142,-2.79734 -0.40044,-4.02671 -1.02547,-3.26371 -3.45426,-4.38482 -11.15409,-5.14863 -3.96557,-0.39339 -11.415,-0.2132 -15.46569,0.37407 -3.54114,0.5134 -6.49353,1.46806 -8.09343,2.61703 -2.81208,2.01947 -3.25392,7.99759 -1.07933,14.60309 1.08209,3.2869 3.04055,6.42602 5.12671,8.21736 1.04572,0.89794 3.53728,2.24289 5.11606,2.76166 3.29754,1.08355 8.77796,1.54861 12.65143,1.07357 z"
     style="fill:#414f47;fill-opacity:1;stroke-width:0.604129;stroke:none"
     id="path1" /><g
     id="g18"
     style="fill:#b3d5e5;fill-opacity:1;stroke:none"
     transform="translate(-0.16017739,-0.05574659)"><path
       id="path1-26"
       style="fill:#b3d5e5;fill-opacity:1;stroke-width:0.604129;stroke:none"
       d="m 87.011285,59.062121 c -3.958,-0.08776 -8.90925,0.124001 -11.94726,0.564453 -3.54114,0.5134 -6.49385,1.466265 -8.09375,2.615235 -2.81208,2.01947 -3.25272,7.998015 -1.07813,14.603515 1.08209,3.2869 3.0408,6.42741 5.12696,8.21875 1.04572,0.89794 3.53645,2.240996 5.11523,2.759766 3.29754,1.08355 8.77887,1.549259 12.65234,1.074219 2.14567,-0.26314 4.82456,-1.120828 6.30079,-2.017578 4.09803,-2.48943 6.848655,-9.740436 6.998035,-18.453126 0.0388,-2.26444 -0.0142,-2.797973 -0.40039,-4.027343 -1.02547,-3.26371 -3.454465,-4.384628 -11.154295,-5.148438 -0.99139,-0.09835 -2.20019,-0.160201 -3.51953,-0.189453 z"
       sodipodi:nodetypes="ssssssssscss" /><path
       id="path1-2"
       style="fill:#b3d5e5;fill-opacity:1;stroke-width:0.604129;stroke:none"
       d="m 25.684753,59.07914 c -5.16144,0.036 -8.359945,0.360495 -10.921875,1.109375 -4.08874,1.19519 -5.2939173,2.720235 -5.4667973,6.921875 -0.0934,2.27071 0.209606,5.877931 0.660156,7.869141 0.1563903,0.69112 0.3629683,1.629124 0.4609383,2.083984 0.098,0.45485 0.4477,1.628825 0.77539,2.609375 1.22547,3.667 2.955244,6.074676 5.308594,7.384766 1.49325,0.83127 4.051138,1.627558 5.679688,1.767578 0.703929,0.0605 1.323783,0.15623 1.376953,0.212891 0.23497,0.25044 6.771022,-0.147374 8.664062,-0.527344 5.53632,-1.11127 9.246614,-3.923878 11.736327,-8.892578 1.61368,-3.22039 2.49195,-7.088474 2.50195,-11.027344 l 0.006,-2.814453 -0.72265,-1.464844 c -0.45611,-0.92314 -0.97549,-1.655352 -1.4043,-1.982422 -1.46252,-1.11553 -4.58915,-2.168195 -8.11914,-2.734375 -1.96654,-0.3154 -6.617016,-0.542925 -10.535156,-0.515625 z"
       sodipodi:nodetypes="cscscsscccscccssc" /></g><path
     d="m 146.56541,48.015871 c -1.08905,-0.318343 -2.43374,-0.958896 -2.9882,-1.42346 -0.92337,-0.773646 -6.78531,-10.359903 -12.30618,-20.124823 -2.34907,-4.154838 -2.75632,-4.688228 -3.20705,-4.200175 -0.47878,0.518447 -0.51454,1.370217 -0.55128,13.12219 l -0.0342,10.902782 -0.72155,0.90789 c -0.70058,0.881505 -0.80695,0.907668 -3.66058,0.900205 -3.24864,-0.0085 -4.46189,-0.43021 -5.09783,-1.772006 -0.54607,-1.152172 -0.41346,-43.5014155 0.13949,-44.5472436 0.57159,-1.08108436 2.23153,-1.51676249 4.92269,-1.2920425 2.72265,0.22734916 4.61533,1.0254648 5.57946,2.3527585 0.79157,1.0897549 6.5042,10.9127136 11.4092,19.6183466 1.87883,3.334642 3.48327,6.064899 3.56545,6.067245 0.0822,0.0025 0.104,-5.648727 0.0484,-12.557921 -0.0859,-10.6885907 -0.0332,-12.7379563 0.35383,-13.7407557 0.57202,-1.48241137 1.1042,-1.63401882 5.16451,-1.47126668 3.02413,0.12122055 3.1978,0.16711841 3.87947,1.02527388 l 0.71363,0.8983759 V 24.499752 46.318266 l -0.8247,0.99948 c -0.71018,0.86068 -1.0733,1.018753 -2.6147,1.138212 -1.15628,0.08961 -2.49098,-0.06619 -3.77008,-0.440087 z M 163.4281,47.63702 c -0.65953,-0.435452 -1.01014,-0.96064 -1.13329,-1.697589 -0.0981,-0.586885 -0.139,-10.637743 -0.091,-22.335236 l 0.0874,-21.2681711 0.82964,-0.8970708 0.82963,-0.89706391 11.57144,0.0787549 c 7.12172,0.0484631 11.86191,0.20764593 12.32679,0.41393671 0.41542,0.1843465 0.93981,0.6550729 1.16531,1.0460492 0.57249,0.9926518 0.77292,4.7428195 0.33095,6.1928618 -0.66681,2.1878882 -1.01811,2.2797802 -9.40917,2.4611662 l -7.48468,0.161785 -0.084,4.181217 c -0.0629,3.127728 0.0124,4.247493 0.29882,4.444272 0.21055,0.144679 3.17975,0.26529 6.59822,0.268012 6.76135,0.0055 7.5457,0.17484 8.21927,1.775609 0.58862,1.398934 0.451,5.015376 -0.23737,6.237958 -0.32568,0.5784 -0.62772,1.078608 -0.67124,1.111581 -0.0434,0.03294 -3.23913,0.142175 -7.10139,0.242683 l -7.02231,0.182737 -0.0829,4.611022 -0.0829,4.611014 h 7.33893 c 8.45989,0 9.11261,0.142285 9.71468,2.117737 0.45453,1.491298 0.23952,5.425275 -0.33773,6.178953 -1.01106,1.320145 -1.87753,1.410764 -13.47756,1.409502 -10.51563,-0.0012 -11.19426,-0.03657 -12.09562,-0.631724 z m 58.77683,0.316078 c -0.90393,-0.121943 -1.86459,-0.328603 -2.13476,-0.459245 -0.27017,-0.13064 -2.40909,-3.218827 -4.75313,-6.862632 l -4.26193,-6.625105 -2.11972,0.09406 -2.11974,0.09405 -0.14942,6.095888 -0.14942,6.095889 -0.83841,0.780191 c -0.75846,0.705773 -1.10851,0.780185 -3.67015,0.780185 -3.06848,0 -4.63861,-0.475745 -5.17907,-1.569231 -0.42833,-0.866659 -0.45305,-42.9954809 -0.026,-44.2119417 0.59927,-1.70675631 1.62237,-1.86446014 11.04472,-1.70247105 9.17115,0.15766682 10.43156,0.34779467 13.71096,2.06824485 0.87735,0.4602647 2.45787,1.7107396 3.5123,2.778826 2.56787,2.6011661 3.89262,5.4824139 4.27956,9.3078259 0.74345,7.350518 -1.46592,13.017663 -6.38777,16.384803 -0.74506,0.509697 -1.35488,1.084877 -1.35517,1.278177 -2.3e-4,0.193292 0.91451,1.795016 2.03291,3.55938 5.72688,9.034585 6.03473,9.571541 6.03473,10.526357 0,0.796323 -0.18194,1.048204 -1.03629,1.434753 -1.07253,0.485264 -3.53294,0.54339 -6.43425,0.152002 z m -5.84255,-25.245973 c 1.9629,-1.073917 2.56704,-2.049483 2.76996,-4.472787 0.22963,-2.742055 -0.31199,-4.638834 -1.71711,-6.013453 -1.45966,-1.427975 -3.40733,-1.885118 -7.46196,-1.751454 l -3.13762,0.103439 -0.081,6.583684 -0.081,6.583677 4.11506,-0.112077 c 3.67828,-0.10018 4.27201,-0.197941 5.59364,-0.921029 z m 21.98478,25.147207 c -1.52903,-0.837756 -1.50545,-0.444515 -1.42534,-23.764792 l 0.0748,-21.7535651 0.82804,-0.8970398 0.82802,-0.89704591 7.68839,-0.10156633 c 4.54072,-0.0599737 8.66707,0.0450728 10.07892,0.25655398 9.99254,1.49691826 16.36701,7.91784316 18.096,18.22778516 0.43057,2.567492 0.42979,8.55493 -0.002,11.130138 -0.7871,4.700198 -2.61137,8.693724 -5.3026,11.607939 -3.085,3.34062 -6.3201,5.130982 -11.1,6.142974 -2.93154,0.62066 -18.65009,0.659322 -19.76472,0.04864 z m 18.67044,-9.938848 c 2.49185,-1.045723 5.18001,-3.967253 6.1036,-6.633486 1.94001,-5.600568 1.34558,-12.589931 -1.40349,-16.502587 -1.31551,-1.872322 -4.02821,-3.533858 -6.60855,-4.04776 -1.87771,-0.373969 -7.1942,-0.421424 -7.70619,-0.06879 -0.42275,0.291158 -0.44792,1.285664 -0.41857,16.530215 l 0.0228,11.766499 4.10878,-0.145844 c 3.37018,-0.119626 4.4311,-0.281098 5.90173,-0.898247 z m 33.9162,10.129272 c -1.52475,-0.177322 -2.66201,-0.739103 -3.07293,-1.517977 -0.24208,-0.458849 -0.41029,-3.295955 -0.51153,-8.627249 -0.12535,-6.602785 -0.23293,-8.079019 -0.63732,-8.746001 -0.2676,-0.441338 -3.0802,-6.185836 -6.25022,-12.765554 -6.11282,-12.6878101 -6.37383,-13.4427751 -5.1173,-14.8016437 0.60863,-0.65818305 0.94512,-0.71942387 3.86974,-0.70433893 3.89818,0.0201313 5.22163,0.44109143 5.84546,1.85938583 4.03171,9.1661378 6.79902,15.1120448 7.03338,15.1120448 0.60964,0 1.26,-1.150275 4.85436,-8.5858341 2.04,-4.2201061 3.96598,-7.8130389 4.29568,-8.0135664 0.33009,-0.2007625 1.86859,-0.35829927 3.43643,-0.35187087 3.60557,0.0147809 5.50168,0.78605897 5.82262,2.36846047 0.2423,1.1945775 0.66635,0.2583271 -7.11798,15.7153409 l -5.70356,11.325308 -0.0841,8.053423 c -0.0614,5.877886 -0.18566,8.185974 -0.45992,8.5441 -0.89795,1.17251 -2.83621,1.527483 -6.20278,1.135972 z"
     style="fill:#bf96db;fill-opacity:1;stroke:none;stroke-width:0.233215;stroke-opacity:1"
     id="path1-5" /><path
     d="m 122.62232,92.17363 c -3.13998,-1.003383 -5.26529,-3.04781 -6.59261,-6.341676 l -1.04801,-2.60074 0.65103,-0.667145 c 0.39858,-0.408439 1.48391,-0.771008 2.79879,-0.934962 l 2.14775,-0.267836 1.44199,1.984215 c 1.24675,1.71558 1.63264,2.011397 2.85025,2.184931 3.60687,0.514032 5.97549,-2.552349 4.19022,-5.424565 -0.81384,-1.30933 -1.77039,-1.921635 -5.22445,-3.344338 -5.17666,-2.132218 -7.4061,-4.891302 -7.74216,-9.58141 -0.32686,-4.561886 1.35544,-8.22877 4.69149,-10.226016 3.58327,-2.14522 8.98568,-1.490645 11.76621,1.425663 2.14081,2.245332 3.55936,5.937606 2.57652,6.706304 -0.1896,0.148284 -1.31846,0.505181 -2.50859,0.793099 l -2.16386,0.523461 -1.02106,-1.551595 c -1.83592,-2.789814 -3.93363,-3.437359 -5.84759,-1.805092 -2.83038,2.413826 -1.33089,5.709522 3.37182,7.410931 4.39795,1.591137 6.99927,3.746736 8.28069,6.861818 0.49159,1.195078 0.65073,2.255743 0.64245,4.28219 -0.0192,4.695297 -1.96927,8.102876 -5.66326,9.895997 -1.8121,0.879631 -5.83999,1.238419 -7.59762,0.676766 z m 47.52331,-0.222705 c -3.15632,-1.073374 -4.83399,-2.818555 -6.364,-6.620103 -0.71272,-1.770831 -0.63301,-2.995109 0.21473,-3.297855 0.28411,-0.101473 1.49002,-0.298697 2.67978,-0.438301 l 2.16322,-0.253816 0.63443,1.29908 c 1.76164,3.607204 6.86706,4.038404 7.96859,0.673026 0.90203,-2.755903 -0.41488,-4.403232 -5.06853,-6.340206 -4.42079,-1.840053 -6.31525,-3.45603 -7.50606,-6.402678 -2.38765,-5.908256 0.0167,-12.356265 5.35578,-14.362742 3.21187,-1.207068 7.2766,-0.466481 9.87977,1.800081 2.36899,2.062659 4.19813,6.195794 3.11639,7.041853 -0.52473,0.4104 -4.64227,1.29133 -5.06847,1.084355 -0.22616,-0.109833 -0.41119,-0.408509 -0.41119,-0.663735 0,-0.667765 -1.52548,-2.412836 -2.52839,-2.892377 -2.44086,-1.167076 -5.07342,0.611354 -5.07342,3.427339 0,0.397099 0.3478,1.245069 0.77288,1.884384 0.60414,0.908601 1.51454,1.465353 4.1697,2.549988 1.86825,0.763179 3.8808,1.752461 4.47235,2.198402 3.56435,2.687001 5.03869,6.575901 4.26983,11.262749 -1.05559,6.434859 -7.41737,10.179425 -13.67739,8.050556 z m 25.2306,0.003 c -2.57843,-0.86819 -4.24165,-2.357344 -5.70136,-5.104668 -1.38067,-2.59859 -1.6185,-4.042183 -0.76017,-4.613785 0.29268,-0.194906 1.50332,-0.475662 2.69034,-0.623916 l 2.1582,-0.269555 0.9555,1.526734 c 1.15322,1.842653 2.59408,2.772465 4.29627,2.772465 2.05848,0 3.96301,-1.671659 3.96301,-3.478431 0,-2.137999 -1.78305,-3.880679 -5.27019,-5.150818 -5.31601,-1.936295 -7.94338,-5.026956 -8.58413,-10.097794 -0.27586,-2.18328 0.51808,-5.375844 1.81301,-7.290348 3.02085,-4.466193 9.80071,-5.286952 14.23278,-1.72299 1.68063,1.351451 3.68609,4.899033 3.53464,6.252634 -0.10487,0.937212 -1.03457,1.387203 -4.13555,2.001707 -1.17405,0.232645 -1.32411,0.170684 -1.57019,-0.648415 -0.65172,-2.16927 -3.16069,-3.710176 -5.14365,-3.159013 -1.2642,0.351388 -2.47851,1.982875 -2.47851,3.330007 0,2.013016 1.30896,3.230064 5.28165,4.910783 5.19774,2.198991 7.3902,4.35992 8.39611,8.275362 0.77021,2.997988 -0.3837,8.087376 -2.32192,10.240996 -2.8028,3.114252 -7.2526,4.230657 -11.35584,2.849045 z m 41.93134,0.0567 c -3.80274,-1.32728 -6.88371,-4.288548 -8.59024,-8.25648 -2.28554,-5.314223 -2.3433,-13.942952 -0.13016,-19.441379 1.49085,-3.703886 5.23842,-7.244957 8.75096,-8.268721 1.80789,-0.526922 5.05221,-0.521741 7.05471,0.0113 4.64914,1.237489 8.49139,5.471926 9.9999,11.020634 0.76358,2.808704 1.05648,8.071656 0.61479,11.047325 -1.01569,6.842568 -4.83777,12.177301 -9.9262,13.85455 -2.12287,0.699746 -5.81823,0.715347 -7.77376,0.0328 z m 7.43063,-8.004294 c 1.52832,-1.069875 3.11277,-3.638504 3.57083,-5.788804 0.18995,-0.89171 0.29105,-3.182903 0.225,-5.099498 -0.10379,-3.012549 -0.24531,-3.762387 -1.05307,-5.579668 -1.25497,-2.823435 -3.02933,-4.230508 -5.67354,-4.499114 -3.37432,-0.342778 -5.91204,1.246209 -7.39177,4.628317 -0.81005,1.851442 -0.87696,2.312253 -0.87766,6.044689 -6.9e-4,3.656755 0.0809,4.250878 0.85905,6.256275 1.43268,3.692245 3.95501,5.448575 7.31464,5.093317 1.03869,-0.109832 2.30797,-0.552503 3.02652,-1.055514 z m 51.98531,7.786859 c -1.03677,-0.429379 -2.47352,-1.34697 -3.19276,-2.039066 -1.43529,-1.381222 -3.2841,-4.924994 -3.2841,-6.294986 0,-1.153966 0.63854,-1.515025 3.23152,-1.827192 l 2.16731,-0.260906 0.98222,1.569457 c 1.25438,2.004286 2.33778,2.700712 4.20137,2.700712 2.20106,0 3.52659,-1.229689 3.65069,-3.386728 0.1411,-2.452757 -0.83654,-3.46893 -5.04473,-5.243451 -4.09802,-1.728081 -5.96447,-3.223145 -7.20307,-5.769813 -0.77321,-1.589778 -0.93659,-2.362005 -1.01776,-4.810052 -0.0854,-2.577449 0.003,-3.162123 0.76018,-5.032666 2.51394,-6.209423 10.77279,-7.722539 15.77846,-2.890807 1.99857,1.929095 3.47799,5.830435 2.5008,6.594722 -0.4922,0.38497 -4.54731,1.25156 -4.9442,1.056595 -0.17344,-0.08521 -0.54677,-0.668065 -0.82965,-1.29527 -1.78907,-3.966561 -7.23951,-3.276215 -7.23951,0.916951 0,1.848913 1.31598,3.165023 4.49329,4.493754 7.03748,2.942978 9.18994,5.606609 9.18994,11.372242 0,4.610607 -1.74336,7.80336 -5.36922,9.833097 -2.15307,1.205268 -6.32014,1.353152 -8.83078,0.313407 z m -79.4218,0.0268 c -0.74458,-0.156473 -1.51858,-0.596734 -1.74842,-0.994513 -0.62198,-1.076435 -0.60528,-32.794127 0.0178,-33.872532 0.35466,-0.613794 0.80654,-0.744987 2.57297,-0.746957 1.50252,-0.002 2.2782,0.170084 2.59607,0.574824 0.38588,0.491391 0.46075,3.028939 0.50349,17.067873 0.0477,15.639431 0.0209,16.527072 -0.51768,17.195767 -0.72397,0.898891 -1.74111,1.129256 -3.42425,0.775538 z m -75.14752,-0.803502 c -0.60414,-0.764547 -0.61574,-1.137367 -0.53212,-17.110396 0.0789,-15.078007 0.12706,-16.381437 0.62846,-17.015652 0.49168,-0.621924 1.24844,-0.686826 8.00875,-0.686826 h 7.46577 l 0.58128,0.908441 c 0.40685,0.635855 0.58127,1.512815 0.58127,2.922588 0,3.259995 -0.30703,3.442209 -6.18841,3.672664 l -4.9102,0.192404 v 3.270856 3.270836 l 4.43975,0.192404 c 5.23987,0.227086 5.44258,0.347908 5.44258,3.244405 0,3.354167 -0.15365,3.45949 -5.3719,3.682075 l -4.51043,0.192414 v 3.270836 3.270846 l 4.94184,0.229745 c 5.87713,0.273226 6.15677,0.43639 6.15677,3.592323 0,1.161267 -0.19449,2.322553 -0.47335,2.826395 -0.46763,0.84491 -0.56494,0.85524 -8.05791,0.85524 -7.21784,0 -7.6144,-0.0378 -8.20215,-0.781588 z m 119.81376,0.283606 -0.76019,-0.486601 -0.0792,-16.812418 -0.0792,-16.812418 0.77435,-0.642085 c 0.60575,-0.502292 1.17088,-0.589643 2.59542,-0.401209 3.35755,0.4441 3.24491,0.281037 10.6096,15.358084 1.73267,3.547132 3.18847,6.401018 3.23515,6.341966 0.0466,-0.059 0.17653,-4.692857 0.28863,-10.297367 0.15121,-7.560934 0.30617,-10.326529 0.60057,-10.719128 0.25879,-0.345127 1.09693,-0.529112 2.41043,-0.529112 3.47963,0 3.24284,-1.32857 3.14318,17.635148 -0.0987,18.771663 0.0453,17.863112 -2.83202,17.863112 -1.91298,0 -3.36473,-0.714517 -4.43159,-2.1811 -0.8877,-1.220358 -4.50237,-8.155379 -7.57802,-14.539046 -1.11666,-2.317693 -2.18727,-4.280199 -2.37908,-4.361121 -0.25629,-0.108112 -0.34881,2.463957 -0.34881,9.697454 0,9.331525 -0.0316,9.884698 -0.60813,10.614205 -0.7168,0.907101 -3.32566,1.062474 -4.56109,0.271636 z"
     style="fill:#99d05e;fill-opacity:1;stroke:none;stroke-width:0.256549;stroke-opacity:1"
     id="path1-88" /></svg>
