<?xml version="1.0" encoding="UTF-8" standalone="no"?>
<svg
   height="92.859077"
   version="1.2"
   width="110.97215"
   id="svg6"
   sodipodi:docname="nerdy_sessionsBrain.svg"
   xml:space="preserve"
   inkscape:version="1.4 (e7c3feb1, 2024-10-09)"
   xmlns:inkscape="http://www.inkscape.org/namespaces/inkscape"
   xmlns:sodipodi="http://sodipodi.sourceforge.net/DTD/sodipodi-0.dtd"
   xmlns="http://www.w3.org/2000/svg"
   xmlns:svg="http://www.w3.org/2000/svg"><sodipodi:namedview
     id="namedview6"
     pagecolor="#ffffff"
     bordercolor="#000000"
     borderopacity="0.25"
     inkscape:showpageshadow="2"
     inkscape:pageopacity="0.0"
     inkscape:pagecheckerboard="0"
     inkscape:deskcolor="#d1d1d1"
     inkscape:zoom="1.4992571"
     inkscape:cx="-85.709118"
     inkscape:cy="-73.036174"
     inkscape:window-width="3136"
     inkscape:window-height="1186"
     inkscape:window-x="636"
     inkscape:window-y="342"
     inkscape:window-maximized="0"
     inkscape:current-layer="svg6" /><defs
     id="defs1" /><path
     d="m 23.383376,92.722222 c -7.13929,-0.77598 -10.26492,-2.11149 -12.87233,-5.5 C 7.87632,83.798182 6.30863,79.133492 5.00105,70.827102 4.49675,67.623552 4.16249,67.028582 2.54401,66.453672 0.271,65.646282 0,65.173482 0,62.015192 c 0,-2.99466 0.473,-3.97476 2.04308,-4.2335 0.30705,-0.0506 1.86318,-0.30965 3.45809,-0.57567 2.60554,-0.43459 5.995306,-0.91373 10.439336,-1.47558 4.55678,-0.57611 12.48038,-0.75782 16.6362,-0.3815 7.21829,0.65361 11.14878,1.76429 14.29313,4.03893 1.96077,1.41841 2.02211,1.44801 3.81806,1.84158 2.45205,0.53737 9.24807,0.25797 11.4569,-0.47102 0.38175,-0.12599 1.08478,-0.56721 1.5623,-0.98049 2.32401,-2.01143 6.10902,-3.37913 11.48636,-4.15058 4.45253,-0.63878 15.0432,-0.58199 19.91209,0.10676 0.69112,0.0978 1.69156,0.22102 2.22319,0.27389 3.413374,0.33944 11.348204,1.66801 12.213844,2.04501 1.25839,0.54805 1.45622,1.11737 1.42693,4.1064 -0.0331,3.37518 -0.20146,3.68753 -2.32848,4.31918 -1.47486,0.43799 -2.00412,1.19134 -2.30655,3.28319 -0.48718,3.36958 -1.56477,8.14075 -2.39833,10.61892 -1.31019,3.89521 -2.25678,5.63452 -4.192914,7.70423 -1.96789,2.10369 -4.17791,3.24911 -7.67841,3.97964 -3.52752,0.73616 -8.87347,1.01577 -11.53919,0.60351 -0.64668,-0.1 -1.87172,-0.2826 -2.72234,-0.40577 -1.85424,-0.2685 -4.78238,-1.17344 -6.3796,-1.97161 -4.7616,-2.37949 -8.27063,-7.07584 -10.1377,-13.56789 -0.60073,-2.08883 -1.07084,-4.36644 -1.26803,-6.14341 -0.15016,-1.35314 -0.7151,-2.24924 -1.74267,-2.76416 -0.62365,-0.31253 -1.1581,-0.38631 -2.8006,-0.38665 -1.86052,-3.7e-4 -2.10439,0.0434 -2.923,0.52463 -1.14971,0.67588 -1.38083,1.18906 -2.10605,4.67639 -1.3928,6.69748 -3.54149,11.29137 -6.73867,14.40724 -3.25569,3.17289 -6.6302,4.66363 -12.45536,5.50232 -1.74605,0.2514 -6.27092,0.35666 -7.86824,0.18304 z m 8.66287,-4.32012 c 5.53632,-1.11127 9.24756,-3.92264 11.73727,-8.89134 1.61368,-3.22039 2.49128,-7.09004 2.50128,-11.02891 l 0.007,-2.81276 -0.7237,-1.46474 c -0.45611,-0.92314 -0.97527,-1.65661 -1.40408,-1.98368 -1.46252,-1.11553 -4.58826,-2.16841 -8.11825,-2.73459 -1.96654,-0.3154 -6.61786,-0.54315 -10.536,-0.51585 -5.16144,0.036 -8.36072,0.36104 -10.92265,1.10992 -4.08874,1.19519 -5.293136,2.7204 -5.466016,6.92204 -0.0934,2.27071 0.20881,5.87766 0.659356,7.86887 0.15639,0.69112 0.36449,1.62873 0.46246,2.08359 0.098,0.45485 0.44625,1.62928 0.77394,2.60983 1.22547,3.667 2.9568,6.07473 5.31015,7.38482 1.49325,0.83127 4.05115,1.6271 5.6797,1.76712 0.70393,0.0605 1.32336,0.15639 1.37653,0.21305 0.23497,0.25044 6.76983,-0.1474 8.66287,-0.52737 z m 56.57868,0.36747 c 2.14567,-0.26314 4.82579,-1.12145 6.30202,-2.0182 4.09804,-2.48943 6.847384,-9.74055 6.996764,-18.45324 0.0388,-2.26444 -0.0142,-2.79734 -0.40044,-4.02671 -1.02547,-3.26371 -3.454264,-4.38482 -11.154094,-5.14863 -3.96557,-0.39339 -11.415,-0.2132 -15.46569,0.37407 -3.54114,0.5134 -6.49353,1.46806 -8.09343,2.61703 -2.81208,2.01947 -3.25392,7.99759 -1.07933,14.60309 1.08209,3.2869 3.04055,6.42602 5.12671,8.21736 1.04572,0.89794 3.53728,2.24289 5.11606,2.76166 3.29754,1.08355 8.77796,1.54861 12.65143,1.07357 z m -33.98282,-32.78605 c -0.19212,-0.0498 -0.43136,-0.30634 -0.53164,-0.57012 -0.10738,-0.28244 -0.18275,-5.62033 -0.18333,-12.98457 -0.002,-18.6582 -0.36815,-28.37869 -1.157,-30.6715 -1.43897,-4.1824702 -3.91445,-6.5644702 -7.63813,-7.3497402 -2.15373,-0.4542 -3.74459,-0.37613 -5.90199,0.28962 -2.36422,0.72958 -3.39691,1.30502 -4.95105,2.75884 -4.85725,4.5437102 -3.16001,12.8984202 2.62029,12.8984202 h 1.18155 l 0.37116,-0.82161 c 0.20413,-0.45189 0.59856,-1.58691 0.87651,-2.52225 0.58157,-1.95712 0.97399,-2.45577 1.93264,-2.45577 1.42774,0 1.75639,1.99505 0.80992,4.91661 -0.55684,1.71882 -0.59989,3.74141 -0.11344,5.32941 0.25944,0.84696 0.41962,1.03102 3.12608,3.59174 1.17514,1.11186 0.88181,2.40524 -0.65621,2.89338 -0.57448,0.18233 -2.34605,-0.76832 -3.46763,-1.86077 -0.99209,-0.96633 -2.03499,-2.88579 -2.48627,-4.57602 -0.18857,-0.70628 -0.29294,-0.823 -0.74354,-0.83146 -2.54559,-0.0478 -4.65629,-0.35828 -5.55289,-0.81684 -2.1644,-1.10696 -4.27628,-4.32857 -4.95862,-7.56423 -0.11427,-0.54183 -0.23631,-1.01675 -0.27121,-1.05536 -0.163,-0.18034 -3.01601,1.43065 -4.08673,2.30763 -2.23904,1.83387 -3.32662,4.01289 -3.33732,6.68647 -0.0146,3.64682 2.08677,6.01556 5.64781,6.36646 1.07081,0.10551 1.42751,0.23089 1.89245,0.66521 1.01208,0.94542 0.66329,2.43957 -0.70271,3.01033 -0.88301,0.36894 -1.87338,0.33834 -3.6355,-0.11233 -2.95439,-0.75561 -4.52162,-1.978 -6.1406,-4.78945 -0.32144,-0.55822 -0.62589,-1.01494 -0.67656,-1.01494 -0.32227,0 -1.99334,1.17416 -2.75485,1.93567 -1.65394,1.65395 -3.09319,5.30894 -3.15824,8.02037 -0.0589,2.45462 0.78592,5.15501 2.49933,7.98887 1.44569,2.39109 1.47256,2.94309 0.22771,4.67798 -0.49421,0.68875 -1.20199,1.60026 -1.57286,2.02556 -0.6231,0.71456 -0.74414,0.77066 -1.59402,0.73865 -0.505846,-0.019 -1.045426,-0.16035 -1.199076,-0.31399 -0.50332,-0.50332 -0.3691,-1.95263 0.30117,-3.25228 l 0.60764,-1.17821 -0.96157,-1.96016 c -1.39105,-2.83566 -1.95044,-4.93221 -2.07377,-7.77252 -0.20242,-4.66186 1.21972,-8.60362 4.220036,-11.69673 1.4489,-1.4937 2.50648,-2.21451 3.9577,-2.69746 l 1.24318,-0.4137 v -0.91992 c 0,-2.09497 1.19913,-5.31186 2.70802,-7.26471 1.67621,-2.16941 3.24699,-3.21591 6.35307,-4.23264 1.13018,-0.36996 2.2177,-0.69988 2.4167,-0.73317 0.23383,-0.0391 0.6914,-0.6905702 1.29337,-1.8413702 1.82804,-3.49472 3.53927,-5.28289 6.40633,-6.69437 4.07454,-2.00592997 8.69033,-2.61318997 11.94974,-1.57214997 3.45525,1.10360997 5.69787,2.72494997 7.67823,5.55114997 0.58822,0.83944 1.13157,1.45505 1.20744,1.368 0.0759,-0.087 0.6004,-0.83697 1.16561,-1.66652 1.76755,-2.59417 3.66458,-3.97913 7.02439,-5.12826997 1.64329,-0.56205 2.23226,-0.67123 3.60718,-0.668719996716 C 70.495526,0.00504183 73.519576,0.77258183 76.629646,2.3255718 c 2.74485,1.37063 4.6822,3.45829 6.22598,6.70905 0.56355,1.1867002 0.76361,1.4347402 1.23286,1.5285902 1.18595,0.23718 4.97422,1.76465 5.9335,2.39243 1.49258,0.9768 3.05983,2.78099 3.9449,4.54131 0.84074,1.67216 1.5253,4.01169 1.5253,5.21283 v 0.74688 l 1.78822,0.85429 c 3.622124,1.73041 6.076264,4.8279 7.287114,9.19741 0.5493,1.98221 0.67383,3.88129 0.40573,6.18739 -0.28524,2.45358 -0.93406,4.58023 -2.07399,6.79803 l -0.86566,1.68416 0.60949,1.23802 c 1.06492,2.16318 0.78161,3.80455 -0.65627,3.8021 -0.89904,-0.002 -1.49496,-0.49057 -3.100514,-2.54449 -1.85136,-2.36835 -1.86303,-2.53526 -0.3354,-4.79616 1.41267,-2.09073 2.258554,-4.10667 2.639304,-6.29005 0.26575,-1.52394 0.26604,-1.88255 0.003,-3.45867 -0.35969,-2.15317 -1.771864,-5.17622 -3.021144,-6.46731 -1.09982,-1.13666 -2.90951,-2.33314 -3.02155,-1.99769 -0.17596,0.52683 -2.06647,3.17223 -2.7327,3.82387 -1.36475,1.33487 -4.98704,2.56515 -6.91322,2.34804 -1.84392,-0.20784 -2.65975,-2.0232 -1.45199,-3.23096 0.45293,-0.45294 0.77441,-0.56933 1.88488,-0.68241 1.6569,-0.16872 2.85458,-0.6712 3.82035,-1.6028 2.87433,-2.77261 2.4491,-7.91445 -0.90898,-10.99153 -1.09366,-1.00215 -3.25258,-2.27496 -4.52071,-2.66525 -0.38169,-0.11747 -0.43498,-0.0654 -0.43498,0.42526 0,0.75925 -0.80342,3.06699 -1.58079,4.54068 -0.79779,1.51238 -2.38229,3.13253 -3.58309,3.6637 -0.67063,0.29665 -1.56064,0.4474 -3.31232,0.561 -1.31741,0.0854 -2.41049,0.18136 -2.42906,0.21314 -0.0186,0.0318 -0.13817,0.46985 -0.26577,0.97345 -0.34673,1.36833 -1.75998,3.75754 -2.64857,4.47764 -2.14076,1.73484 -3.06738,2.02461 -4.03654,1.26227 -0.38653,-0.30405 -0.50938,-0.57341 -0.50938,-1.11692 0,-0.91857 0.34947,-1.40189 1.62657,-2.24957 1.13446,-0.75302 1.89837,-1.75727 2.22123,-2.92007 0.33908,-1.22128 0.25147,-3.3526 -0.20663,-5.02611 -0.98923,-3.61396 -0.41837,-5.63474 1.39683,-4.9446 0.61817,0.23502 0.80832,0.61246 1.72067,3.41544 l 0.75509,2.31985 1.06881,0.0578 c 1.49983,0.0811 2.43548,-0.22437 3.46588,-1.13137 2.57041,-2.26257 2.97939,-6.75191 0.90096,-9.8897702 -1.9838,-2.99498 -6.17608,-5.18345 -9.91458,-5.17563 -1.75035,0.003 -3.80625,0.46256 -5.16136,1.15206 -3.08545,1.56994 -5.06927,4.9041002 -5.63899,9.4772902 -0.12347,0.99109 -0.25351,9.37983 -0.32766,21.13753 l -0.12297,19.4943 -0.45638,0.36946 c -0.43568,0.35269 -1.37266,0.45181 -2.21276,0.23408 z m -28.71652,-6.23596 c -2.12567,-0.6075 -4.33028,-1.82502 -5.37388,-2.96779 -1.72325,-1.88694 -2.56021,-4.27899 -1.9262,-5.50503 0.55912,-1.08123 2.4587,-1.22288 2.96557,-0.22113 0.13067,0.25825 0.45345,0.9491 0.71728,1.53523 0.57599,1.27958 1.70326,2.46655 2.91935,3.07389 0.53673,0.26806 1.67295,0.55493 2.84892,0.71928 2.34932,0.32837 2.65295,0.53707 2.65295,1.8235 0,0.78939 -0.0841,0.99026 -0.59479,1.41994 -0.50505,0.42497 -0.77488,0.49841 -1.78822,0.48671 -0.65638,-0.008 -1.74583,-0.17164 -2.42098,-0.3646 z m 18.19923,0.003 c -0.2577,-0.24007 -0.45428,-0.74649 -0.54409,-1.40157 -0.29962,-2.18537 -1.59364,-3.98312 -3.46192,-4.80956 -0.44585,-0.19721 -1.5387,-0.41321 -2.44019,-0.48229 -1.31062,-0.10044 -1.90872,-0.25881 -3.03189,-0.80281 -1.51158,-0.73215 -3.04638,-1.95552 -3.24723,-2.58836 -0.18865,-0.59437 0.25984,-1.46325 0.89002,-1.72428 0.76977,-0.31886 1.61657,-0.11845 2.98312,0.70598 1.04864,0.63265 1.34949,0.71497 3.13586,0.8581 2.7126,0.21731 3.5996,0.67536 6.35111,3.27967 1.76248,1.66819 2.79662,5.57517 1.80828,6.83164 -0.50989,0.64823 -1.81408,0.71948 -2.44307,0.13348 z m 20.36344,-0.0659 c -0.79042,-0.57796 -0.55225,-3.07942 0.49218,-5.16951 0.4474,-0.89534 0.98276,-1.52181 2.23898,-2.62009 2.268,-1.98282 2.5734,-2.11042 5.69613,-2.38006 1.77387,-0.15316 2.22209,-0.26485 3.11667,-0.7767 1.23402,-0.70602 2.17665,-0.76999 2.90493,-0.19712 0.38893,0.30593 0.50938,0.57255 0.50938,1.12757 0,0.61597 -0.11837,0.82202 -0.77567,1.35024 -1.4529,1.16759 -2.92389,1.75475 -4.87797,1.9471 -2.2051,0.21708 -3.34788,0.60244 -4.36282,1.47118 -1.09198,0.9347 -1.55245,1.76565 -1.88657,3.40452 -0.19175,0.94053 -0.42314,1.52808 -0.69037,1.753 -0.47657,0.40111 -1.86696,0.45396 -2.36487,0.0899 z m 16.945,-0.13294 c -0.67622,-0.41229 -0.89015,-0.94089 -0.79272,-1.95871 0.0742,-0.77517 0.52469,-1.04469 2.06584,-1.23594 3.19984,-0.39708 5.01404,-1.68231 6.47255,-4.58536 0.60616,-1.20649 0.61633,-1.21508 1.50651,-1.27271 0.72478,-0.047 1.00213,0.0331 1.44983,0.41816 0.49442,0.42529 0.55088,0.59175 0.52827,1.55738 -0.0321,1.3686 -0.82778,2.79243 -2.52272,4.51408 -1.33438,1.35542 -2.47583,1.96394 -4.79792,2.55782 -1.92988,0.49357 -3.10619,0.49517 -3.90964,0.005 z"
     style="fill:#000000;stroke-width:0.604129"
     id="path1" /></svg>
